<svg xmlns="http://www.w3.org/2000/svg" width="186" height="135" viewBox="0 0 186 135" fill="none"><path fill-rule="evenodd" clip-rule="evenodd" d="M32.541 76.438C76.9066 103.309 121.54 55.9523 181.199 81.9364C114.16 50.9867 81.7082 86.0157 32.541 76.438Z" fill="#0AA850"></path><path fill-rule="evenodd" clip-rule="evenodd" d="M0 41.3204C21.6047 116.08 112.649 32.3633 186 79.8081C105.714 13.9172 43.6547 103.664 0 41.3204Z" fill="#0AA850"></path><path fill-rule="evenodd" clip-rule="evenodd" d="M14.7432 41.9576L54.8404 1.96298L56.8084 0L58.9467 1.7857L103.521 39H94.0435L57.1815 8.22402L23.3188 42H14.7857L14.7432 41.9576Z" fill="black"></path><path fill-rule="evenodd" clip-rule="evenodd" d="M66.6819 40.5089V46.1448C66.6819 47.0589 65.9321 47.8059 65.0166 47.8059H59.3662V40.5079H66.6819V40.5089ZM59.3653 30.9571H65.0157C65.9321 30.9571 66.681 31.705 66.681 32.6182V38.2541H59.3653V30.9562V30.9571ZM57.1057 40.5089V47.8068H51.4553C50.5388 47.8068 49.7899 47.0589 49.7899 46.1457V40.5098H57.1066L57.1057 40.5089ZM51.4543 30.9571H57.1047V38.255H49.7881V32.6191C49.7881 31.705 50.5379 30.958 51.4534 30.958L51.4543 30.9571Z" fill="black"></path><path d="M88.9272 4.05365C88.9406 4.06272 88.9552 4.0753 88.9685 4.08436C89.0559 4.3262 89.1325 4.49016 89.1325 4.49016C89.1496 4.91015 89.1858 5.33314 89.2352 5.75922C89.2428 5.81248 89.2506 5.86563 89.2571 5.92123C89.3709 6.83593 89.5552 7.7626 89.7915 8.68397C90.4298 14.1543 93.4075 19.4508 94.3263 20.9786C92.4736 20.5904 89.0849 19.5769 87.6096 17.1818C85.0749 13.0686 88.4303 7.32949 88.9272 4.05365Z" fill="#0AA850"></path><path d="M88.9707 4.08432C91.5851 6.13852 97.6847 8.14595 98.8377 12.7775C99.7433 16.4039 97.3352 19.4311 96.1765 20.6339C91.7457 15.0017 89.9557 9.18231 89.7945 8.6375C89.7879 8.61993 89.7852 8.60693 89.7826 8.5999C89.7813 8.59638 89.7813 8.59638 89.7813 8.59638C89.5187 7.52257 89.3664 6.62819 89.2592 5.9212C89.2526 5.8656 89.245 5.81244 89.2373 5.75919C89.1136 4.90424 89.0646 4.34395 88.9707 4.08432Z" fill="#0AA850"></path><path d="M114.401 25.1714C114.389 25.1608 114.374 25.1498 114.362 25.1393C114.116 25.1114 113.944 25.0764 113.944 25.0764C113.546 25.1545 113.141 25.2154 112.729 25.2646C112.678 25.2694 112.626 25.2741 112.572 25.2805C111.687 25.3787 110.776 25.4135 109.857 25.3982C104.575 26.0259 98.9315 24.417 97.29 23.8967C98.0704 25.55 99.7829 28.5059 102.364 29.3546C106.796 30.8128 111.435 26.373 114.401 25.1714Z" fill="#0AA850"></path><path d="M114.364 25.1394C111.848 23.1443 108.593 17.8648 103.984 17.8209C100.374 17.7838 98.0705 20.725 97.2006 22.0834C103.486 24.982 109.354 25.358 109.902 25.3871C109.92 25.3893 109.933 25.389 109.94 25.3898C109.943 25.3903 109.943 25.3903 109.943 25.3903C111.011 25.3962 111.886 25.3386 112.574 25.2806C112.627 25.2743 112.679 25.2695 112.731 25.2648C113.562 25.1892 114.099 25.1094 114.364 25.1394Z" fill="#0AA850"></path><path d="M114.993 0.207776C114.976 0.212058 114.956 0.219516 114.939 0.223797C114.76 0.438826 114.621 0.578089 114.621 0.578089C114.448 1.00139 114.254 1.42057 114.045 1.8381C114.018 1.88969 113.99 1.9413 113.963 1.99576C113.507 2.88905 112.975 3.76863 112.392 4.62336C109.71 9.98205 104.701 14.2953 103.194 15.5174C105.233 15.8072 109.075 16.0271 111.473 14.1244C115.59 10.8571 114.286 3.7427 114.993 0.207776Z" fill="#0AA850"></path><path d="M114.939 0.223792C111.503 1.35558 104.52 1.14704 101.623 5.45696C99.3524 8.83035 100.693 12.8198 101.432 14.4796C108.052 10.3616 112.041 5.07308 112.408 4.57553C112.421 4.55997 112.429 4.54768 112.434 4.54143C112.437 4.53837 112.437 4.53837 112.437 4.53837C113.104 3.53745 113.591 2.67903 113.963 1.99565C113.99 1.94118 114.018 1.88958 114.045 1.83798C114.489 1.00954 114.747 0.454482 114.939 0.223792Z" fill="#0AA850"></path><path d="M4.73 123V94.92H16.586C16.859 94.92 17.223 94.933 17.678 94.959C18.146 94.972 18.562 95.011 18.926 95.076C20.603 95.336 21.9745 95.8885 23.0405 96.7335C24.1195 97.5785 24.9125 98.6445 25.4195 99.9315C25.9265 101.205 26.18 102.629 26.18 104.202C26.18 106.555 25.595 108.57 24.425 110.247C23.255 111.911 21.422 112.938 18.926 113.328L16.586 113.484H10.034V123H4.73ZM20.564 123L15.026 111.573L20.486 110.52L26.57 123H20.564ZM10.034 108.531H16.352C16.625 108.531 16.924 108.518 17.249 108.492C17.574 108.466 17.873 108.414 18.146 108.336C18.861 108.141 19.4135 107.816 19.8035 107.361C20.1935 106.893 20.46 106.379 20.603 105.82C20.759 105.248 20.837 104.709 20.837 104.202C20.837 103.695 20.759 103.162 20.603 102.603C20.46 102.031 20.1935 101.517 19.8035 101.062C19.4135 100.594 18.861 100.263 18.146 100.068C17.873 99.99 17.574 99.938 17.249 99.912C16.924 99.886 16.625 99.873 16.352 99.873H10.034V108.531ZM36.707 123.585C35.199 123.585 33.9185 123.299 32.8655 122.727C31.8255 122.142 31.0325 121.368 30.4865 120.406C29.9535 119.431 29.687 118.359 29.687 117.189C29.687 116.214 29.8365 115.323 30.1355 114.517C30.4345 113.711 30.9155 113.003 31.5785 112.392C32.2545 111.768 33.158 111.248 34.289 110.832C35.069 110.546 35.9985 110.292 37.0775 110.071C38.1565 109.85 39.3785 109.642 40.7435 109.447C42.1085 109.239 43.61 109.012 45.248 108.765L43.337 109.818C43.337 108.57 43.038 107.653 42.44 107.068C41.842 106.483 40.841 106.191 39.437 106.191C38.657 106.191 37.8445 106.379 36.9995 106.756C36.1545 107.133 35.563 107.803 35.225 108.765L30.428 107.244C30.961 105.502 31.962 104.085 33.431 102.993C34.9 101.901 36.902 101.355 39.437 101.355C41.296 101.355 42.947 101.641 44.39 102.213C45.833 102.785 46.925 103.773 47.666 105.177C48.082 105.957 48.329 106.737 48.407 107.517C48.485 108.297 48.524 109.168 48.524 110.13V123H43.883V118.671L44.546 119.568C43.519 120.985 42.4075 122.012 41.2115 122.649C40.0285 123.273 38.527 123.585 36.707 123.585ZM37.838 119.412C38.813 119.412 39.632 119.243 40.295 118.905C40.971 118.554 41.504 118.157 41.894 117.715C42.297 117.273 42.57 116.903 42.713 116.604C42.986 116.032 43.142 115.369 43.181 114.615C43.233 113.848 43.259 113.211 43.259 112.704L44.819 113.094C43.246 113.354 41.972 113.575 40.997 113.757C40.022 113.926 39.2355 114.082 38.6375 114.225C38.0395 114.368 37.513 114.524 37.058 114.693C36.538 114.901 36.1155 115.128 35.7905 115.375C35.4785 115.609 35.2445 115.869 35.0885 116.155C34.9455 116.441 34.874 116.76 34.874 117.111C34.874 117.592 34.991 118.008 35.225 118.359C35.472 118.697 35.8165 118.957 36.2585 119.139C36.7005 119.321 37.227 119.412 37.838 119.412ZM62.1353 123.585C60.1983 123.585 58.5018 123.098 57.0458 122.122C55.5898 121.147 54.4523 119.821 53.6333 118.144C52.8273 116.467 52.4243 114.576 52.4243 112.47C52.4243 110.325 52.8338 108.42 53.6528 106.756C54.4848 105.079 55.6483 103.76 57.1433 102.798C58.6383 101.836 60.3933 101.355 62.4083 101.355C64.4103 101.355 66.0938 101.842 67.4588 102.817C68.8238 103.792 69.8573 105.118 70.5593 106.795C71.2613 108.472 71.6123 110.364 71.6123 112.47C71.6123 114.576 71.2548 116.467 70.5398 118.144C69.8378 119.821 68.7848 121.147 67.3808 122.122C65.9768 123.098 64.2283 123.585 62.1353 123.585ZM62.9933 118.866C64.1763 118.866 65.1188 118.599 65.8208 118.066C66.5358 117.533 67.0493 116.786 67.3613 115.824C67.6733 114.862 67.8293 113.744 67.8293 112.47C67.8293 111.196 67.6733 110.078 67.3613 109.116C67.0493 108.154 66.5488 107.406 65.8598 106.873C65.1838 106.34 64.2933 106.074 63.1883 106.074C62.0053 106.074 61.0303 106.366 60.2633 106.951C59.5093 107.523 58.9503 108.297 58.5863 109.272C58.2223 110.234 58.0403 111.3 58.0403 112.47C58.0403 113.653 58.2158 114.732 58.5668 115.707C58.9178 116.669 59.4573 117.436 60.1853 118.008C60.9133 118.58 61.8493 118.866 62.9933 118.866ZM67.8293 123V108.57H67.1663V94.92H72.5093V123H67.8293ZM78.3593 99.015V94.335H83.6633V99.015H78.3593ZM78.3593 123V101.94H83.6633V123H78.3593ZM95.3593 123.585C93.8513 123.585 92.5708 123.299 91.5178 122.727C90.4778 122.142 89.6848 121.368 89.1388 120.406C88.6058 119.431 88.3393 118.359 88.3393 117.189C88.3393 116.214 88.4888 115.323 88.7878 114.517C89.0868 113.711 89.5678 113.003 90.2308 112.392C90.9068 111.768 91.8103 111.248 92.9413 110.832C93.7213 110.546 94.6508 110.292 95.7298 110.071C96.8088 109.85 98.0308 109.642 99.3958 109.447C100.761 109.239 102.262 109.012 103.9 108.765L101.989 109.818C101.989 108.57 101.69 107.653 101.092 107.068C100.494 106.483 99.4933 106.191 98.0893 106.191C97.3093 106.191 96.4968 106.379 95.6518 106.756C94.8068 107.133 94.2153 107.803 93.8773 108.765L89.0803 107.244C89.6133 105.502 90.6143 104.085 92.0833 102.993C93.5523 101.901 95.5543 101.355 98.0893 101.355C99.9483 101.355 101.599 101.641 103.042 102.213C104.485 102.785 105.577 103.773 106.318 105.177C106.734 105.957 106.981 106.737 107.059 107.517C107.137 108.297 107.176 109.168 107.176 110.13V123H102.535V118.671L103.198 119.568C102.171 120.985 101.06 122.012 99.8638 122.649C98.6808 123.273 97.1793 123.585 95.3593 123.585ZM96.4903 119.412C97.4653 119.412 98.2843 119.243 98.9473 118.905C99.6233 118.554 100.156 118.157 100.546 117.715C100.949 117.273 101.222 116.903 101.365 116.604C101.638 116.032 101.794 115.369 101.833 114.615C101.885 113.848 101.911 113.211 101.911 112.704L103.471 113.094C101.898 113.354 100.624 113.575 99.6493 113.757C98.6743 113.926 97.8878 114.082 97.2898 114.225C96.6918 114.368 96.1653 114.524 95.7103 114.693C95.1903 114.901 94.7678 115.128 94.4428 115.375C94.1308 115.609 93.8968 115.869 93.7408 116.155C93.5978 116.441 93.5263 116.76 93.5263 117.111C93.5263 117.592 93.6433 118.008 93.8773 118.359C94.1243 118.697 94.4688 118.957 94.9108 119.139C95.3528 119.321 95.8793 119.412 96.4903 119.412ZM126.599 123V113.055C126.599 112.574 126.573 111.963 126.521 111.222C126.469 110.468 126.306 109.714 126.033 108.96C125.76 108.206 125.312 107.575 124.688 107.068C124.077 106.561 123.206 106.308 122.075 106.308C121.62 106.308 121.132 106.379 120.612 106.522C120.092 106.665 119.605 106.945 119.15 107.361C118.695 107.764 118.318 108.362 118.019 109.155C117.733 109.948 117.59 111.001 117.59 112.314L114.548 110.871C114.548 109.207 114.886 107.647 115.562 106.191C116.238 104.735 117.252 103.558 118.604 102.661C119.969 101.764 121.685 101.316 123.752 101.316C125.403 101.316 126.748 101.595 127.788 102.154C128.828 102.713 129.634 103.422 130.206 104.28C130.791 105.138 131.207 106.035 131.454 106.971C131.701 107.894 131.851 108.739 131.903 109.506C131.955 110.273 131.981 110.832 131.981 111.183V123H126.599ZM112.208 123V101.94H116.927V108.921H117.59V123H112.208ZM145.942 123.585C143.758 123.585 141.886 123.098 140.326 122.122C138.766 121.147 137.57 119.821 136.738 118.144C135.906 116.467 135.49 114.576 135.49 112.47C135.49 110.338 135.919 108.433 136.777 106.756C137.648 105.079 138.87 103.76 140.443 102.798C142.016 101.836 143.875 101.355 146.02 101.355C148.503 101.355 150.583 101.985 152.26 103.246C153.95 104.494 155.029 106.204 155.497 108.375L150.193 109.779C149.881 108.687 149.335 107.835 148.555 107.224C147.788 106.613 146.917 106.308 145.942 106.308C144.824 106.308 143.907 106.581 143.192 107.127C142.477 107.66 141.951 108.394 141.613 109.33C141.275 110.253 141.106 111.3 141.106 112.47C141.106 114.303 141.509 115.791 142.315 116.935C143.134 118.066 144.343 118.632 145.942 118.632C147.138 118.632 148.048 118.359 148.672 117.813C149.296 117.267 149.764 116.487 150.076 115.473L155.497 116.604C154.899 118.84 153.768 120.562 152.104 121.771C150.44 122.981 148.386 123.585 145.942 123.585ZM168.615 123.585C166.457 123.585 164.552 123.124 162.901 122.2C161.263 121.264 159.976 119.984 159.04 118.359C158.117 116.721 157.656 114.849 157.656 112.743C157.656 110.442 158.111 108.44 159.021 106.737C159.931 105.034 161.185 103.714 162.784 102.778C164.383 101.829 166.223 101.355 168.303 101.355C170.513 101.355 172.391 101.875 173.938 102.915C175.485 103.955 176.629 105.417 177.37 107.302C178.111 109.187 178.371 111.404 178.15 113.952H172.905V112.002C172.905 109.857 172.56 108.316 171.871 107.38C171.195 106.431 170.084 105.957 168.537 105.957C166.73 105.957 165.397 106.509 164.539 107.614C163.694 108.706 163.272 110.325 163.272 112.47C163.272 114.433 163.694 115.954 164.539 117.033C165.397 118.099 166.652 118.632 168.303 118.632C169.343 118.632 170.233 118.404 170.974 117.949C171.715 117.494 172.281 116.838 172.671 115.98L177.975 117.501C177.182 119.425 175.927 120.92 174.211 121.986C172.508 123.052 170.643 123.585 168.615 123.585ZM161.634 113.952V110.013H175.596V113.952H161.634Z" fill="#0AA850"></path><path d="M125.12 95V83.48H132.4V84.832H126.544V88.44H131.44V89.792H126.544V93.648H132.4V95H125.12ZM137.963 95.24C137.088 95.24 136.344 95.0453 135.731 94.656C135.123 94.2613 134.659 93.72 134.339 93.032C134.019 92.344 133.854 91.56 133.843 90.68C133.854 89.7787 134.022 88.9867 134.347 88.304C134.678 87.616 135.15 87.08 135.763 86.696C136.376 86.312 137.115 86.12 137.979 86.12C138.891 86.12 139.675 86.344 140.331 86.792C140.992 87.24 141.435 87.8533 141.659 88.632L140.251 89.056C140.07 88.5547 139.774 88.1653 139.363 87.888C138.958 87.6107 138.491 87.472 137.963 87.472C137.371 87.472 136.883 87.6107 136.499 87.888C136.115 88.16 135.83 88.5387 135.643 89.024C135.456 89.504 135.36 90.056 135.355 90.68C135.366 91.64 135.587 92.416 136.019 93.008C136.456 93.5947 137.104 93.888 137.963 93.888C138.528 93.888 138.998 93.76 139.371 93.504C139.744 93.2427 140.027 92.8667 140.219 92.376L141.659 92.752C141.36 93.5573 140.894 94.1733 140.259 94.6C139.624 95.0267 138.859 95.24 137.963 95.24ZM146.738 95.24C145.879 95.24 145.138 95.0453 144.514 94.656C143.895 94.2667 143.418 93.728 143.082 93.04C142.746 92.352 142.578 91.5627 142.578 90.672C142.578 89.7653 142.748 88.9707 143.09 88.288C143.431 87.6053 143.914 87.0747 144.538 86.696C145.162 86.312 145.895 86.12 146.738 86.12C147.602 86.12 148.346 86.3147 148.97 86.704C149.594 87.088 150.071 87.624 150.402 88.312C150.738 88.9947 150.906 89.7813 150.906 90.672C150.906 91.5733 150.738 92.368 150.402 93.056C150.066 93.7387 149.586 94.2747 148.962 94.664C148.338 95.048 147.596 95.24 146.738 95.24ZM146.738 93.888C147.634 93.888 148.3 93.5893 148.738 92.992C149.175 92.3947 149.394 91.6213 149.394 90.672C149.394 89.696 149.172 88.92 148.73 88.344C148.287 87.7627 147.623 87.472 146.738 87.472C146.135 87.472 145.639 87.608 145.25 87.88C144.86 88.152 144.57 88.528 144.378 89.008C144.186 89.488 144.09 90.0427 144.09 90.672C144.09 91.6427 144.314 92.4213 144.762 93.008C145.21 93.5947 145.868 93.888 146.738 93.888ZM156.03 95V83.48H157.454V93.648H162.798V95H156.03ZM168.569 95C168.057 95.1013 167.55 95.1413 167.049 95.12C166.553 95.104 166.11 95.0053 165.721 94.824C165.332 94.6373 165.036 94.3493 164.833 93.96C164.662 93.6187 164.569 93.2747 164.553 92.928C164.542 92.576 164.537 92.1787 164.537 91.736V83.96H165.961V91.672C165.961 92.024 165.964 92.3253 165.969 92.576C165.98 92.8267 166.036 93.0427 166.137 93.224C166.329 93.5653 166.633 93.7653 167.049 93.824C167.47 93.8827 167.977 93.8667 168.569 93.776V95ZM162.785 87.536V86.36H168.569V87.536H162.785ZM173.356 95.24C172.55 95.24 171.86 95.04 171.284 94.64C170.708 94.2347 170.262 93.688 169.948 93C169.638 92.312 169.484 91.536 169.484 90.672C169.484 89.808 169.638 89.032 169.948 88.344C170.262 87.656 170.708 87.1147 171.284 86.72C171.86 86.32 172.548 86.12 173.348 86.12C174.164 86.12 174.849 86.3173 175.404 86.712C175.958 87.1067 176.377 87.648 176.66 88.336C176.948 89.024 177.092 89.8027 177.092 90.672C177.092 91.5307 176.948 92.3067 176.66 93C176.377 93.688 175.958 94.2347 175.404 94.64C174.849 95.04 174.166 95.24 173.356 95.24ZM173.532 93.936C174.113 93.936 174.59 93.7973 174.964 93.52C175.337 93.2373 175.612 92.8507 175.788 92.36C175.969 91.864 176.06 91.3013 176.06 90.672C176.06 90.032 175.969 89.4693 175.788 88.984C175.612 88.4933 175.34 88.112 174.972 87.84C174.604 87.5627 174.137 87.424 173.572 87.424C172.985 87.424 172.5 87.568 172.116 87.856C171.737 88.144 171.454 88.5333 171.268 89.024C171.086 89.5147 170.996 90.064 170.996 90.672C170.996 91.2853 171.089 91.84 171.276 92.336C171.462 92.8267 171.742 93.216 172.116 93.504C172.494 93.792 172.966 93.936 173.532 93.936ZM176.06 95V88.64H175.9V83.48H177.332V95H176.06Z" fill="black"></path></svg>